<?xml version="1.0" standalone="no"?>
<!DOCTYPE svg PUBLIC "-//W3C//DTD SVG 20010904//EN"
 "http://www.w3.org/TR/2001/REC-SVG-20010904/DTD/svg10.dtd">
<svg version="1.0" xmlns="http://www.w3.org/2000/svg"
 width="598.000000pt" height="598.000000pt" viewBox="0 0 598.000000 598.000000"
 preserveAspectRatio="xMidYMid meet">
<metadata>
Created by potrace 1.14, written by Peter Selinger 2001-2017
</metadata>
<g transform="translate(0.000000,598.000000) scale(0.100000,-0.100000)"
fill="#000000" stroke="none">
<path d="M3229 5415 c-267 -42 -484 -130 -594 -240 -52 -52 -65 -73 -99 -160
-21 -55 -51 -126 -67 -157 l-28 -57 29 -18 c17 -9 30 -20 29 -23 0 -3 -37 -37
-82 -75 -66 -57 -88 -85 -119 -145 -20 -40 -42 -98 -49 -129 -17 -85 -19 -88
-94 -144 -91 -68 -126 -132 -133 -244 l-5 -78 -58 -63 c-92 -98 -200 -237
-279 -357 -137 -210 -273 -516 -301 -675 -29 -170 32 -381 175 -600 31 -47 45
-72 31 -57 l-25 28 -327 -1 -326 0 -29 -30 c-15 -16 -28 -33 -28 -37 0 -5 -13
-14 -29 -21 -23 -10 -34 -26 -49 -70 -15 -47 -23 -57 -43 -60 -20 -2 -28 6
-43 40 -21 45 -57 85 -119 132 -36 28 -42 29 -132 27 -56 -1 -96 2 -100 9 -7
11 -95 13 -238 3 l-97 -6 2 -476 3 -476 23 -1 c18 -1 19 -1 2 3 -28 6 -25 23
5 23 14 0 25 4 25 9 0 16 64 71 83 71 9 0 17 -4 17 -9 0 -16 56 8 58 24 1 8 3
22 4 30 1 8 4 15 8 15 4 0 15 18 25 40 10 22 21 40 25 40 4 0 13 12 21 28 7
15 24 37 36 49 12 12 25 34 29 50 9 39 23 53 50 53 30 0 30 1 -1 61 l-24 50
20 17 c11 9 42 38 67 63 26 25 59 53 74 62 14 9 28 26 30 38 2 15 15 26 41 35
45 16 67 9 67 -20 0 -12 22 -42 50 -70 28 -27 53 -61 57 -75 3 -14 17 -36 30
-48 26 -25 30 -65 8 -83 -31 -25 -9 -62 58 -97 45 -23 171 -175 164 -197 -2
-6 5 -17 17 -24 16 -10 17 -12 3 -8 -12 4 -17 2 -15 -6 3 -7 -8 -26 -24 -43
-15 -16 -56 -65 -90 -107 -60 -74 -66 -78 -133 -98 -167 -50 -580 -186 -693
-227 l-122 -46 0 -428 0 -429 621 0 622 0 -8 81 c-6 77 -5 81 12 74 235 -95
435 -155 514 -154 l64 0 -98 29 c-117 34 -382 124 -443 151 -43 18 -44 20 -40
56 3 21 8 87 11 147 10 184 59 416 146 689 38 119 44 130 85 165 92 77 255
158 355 177 l37 7 3 -161 c4 -159 10 -188 40 -176 12 4 13 33 6 178 -19 382
34 831 143 1215 22 78 40 156 40 173 0 46 -45 171 -96 268 -44 83 -46 88 -40
151 4 51 16 86 55 165 l51 100 -10 175 c-18 356 -20 497 -9 551 15 73 51 133
102 168 63 44 104 92 111 131 4 19 9 47 12 62 7 29 67 98 87 98 7 0 6 -4 -3
-10 -12 -7 -11 -13 10 -37 14 -15 28 -30 33 -34 4 -3 -2 -14 -14 -25 -22 -20
-49 -66 -49 -84 0 -17 22 -11 47 12 25 23 125 38 137 20 6 -10 -33 -54 -71
-79 -36 -24 -28 -36 20 -30 24 3 51 9 62 13 14 6 10 -3 -14 -33 -54 -68 -66
-155 -27 -200 19 -22 27 -25 37 -16 10 10 9 15 -1 28 -7 8 -8 15 -3 15 28 0
98 -130 94 -176 -2 -21 3 -33 14 -38 25 -9 72 20 83 52 8 24 20 31 83 50 79
24 129 28 129 12 0 -20 36 -9 73 21 28 23 37 38 37 61 0 37 -77 188 -96 188
-20 0 -17 -21 6 -50 11 -14 20 -31 20 -38 0 -7 6 -23 14 -35 27 -42 9 -117
-28 -117 -6 0 0 7 12 16 22 15 30 44 12 44 -5 0 -10 5 -10 11 0 5 5 7 10 4 16
-10 12 12 -7 43 -17 27 -20 28 -48 16 -28 -11 -32 -10 -67 22 -38 34 -68 44
-68 23 0 -6 -15 6 -34 25 -54 57 -100 48 -153 -31 -19 -28 -27 -29 -53 -3 -16
16 -18 24 -10 41 16 29 146 129 213 164 l57 30 -2 95 -3 95 -85 6 c-47 3 -97
11 -112 17 -30 12 -118 89 -118 103 0 17 104 61 188 79 111 25 349 27 478 5
112 -20 204 -45 204 -56 0 -5 -5 -8 -12 -7 -6 2 -14 -6 -16 -17 -2 -11 -13
-39 -23 -62 -10 -23 -19 -47 -19 -53 0 -6 -4 -9 -9 -6 -5 3 -17 -6 -26 -21
-15 -23 -15 -25 -2 -20 9 3 19 2 21 -2 10 -15 -77 -20 -152 -9 -40 6 -75 8
-78 6 -3 -3 3 -22 12 -41 21 -44 64 -63 173 -79 72 -10 261 -1 341 17 24 5 24
5 3 -4 -13 -6 -45 -13 -72 -17 l-49 -6 6 -37 c4 -20 7 -54 7 -76 0 -27 7 -47
20 -60 12 -11 13 -14 4 -7 -21 17 -152 52 -191 52 -53 0 -137 -48 -123 -71 4
-5 16 -2 29 6 32 21 144 30 188 16 19 -6 55 -24 80 -40 40 -25 45 -32 43 -62
-1 -19 3 -38 9 -42 32 -24 -85 7 -175 46 -100 42 -136 50 -107 21 7 -7 66 -35
130 -62 111 -45 120 -52 178 -117 94 -107 99 -159 30 -315 -67 -151 -67 -151
-40 -212 19 -43 24 -71 24 -148 2 -229 -30 -433 -87 -564 -25 -57 -87 -141
-133 -179 -26 -22 -37 -25 -69 -20 -37 6 -38 5 -31 -20 4 -19 3 -25 -6 -22 -7
3 -28 -4 -46 -15 -29 -18 -31 -22 -21 -43 7 -12 31 -44 54 -72 23 -27 52 -66
65 -85 14 -19 33 -44 43 -55 33 -35 86 -131 110 -196 22 -58 24 -81 25 -254 1
-185 15 -305 43 -356 11 -21 27 -157 36 -311 6 -104 -18 -364 -42 -453 -15
-58 -69 -236 -84 -280 -5 -16 -20 -58 -31 -93 -19 -55 -49 -112 -78 -148 -5
-5 -15 -27 -21 -47 -7 -20 -18 -37 -26 -37 -7 0 -15 -8 -19 -17 -3 -10 -9 -24
-12 -30 -4 -10 75 -13 378 -13 l383 0 24 50 c13 28 26 48 28 46 2 -2 -5 -22
-16 -45 -12 -22 -21 -43 -21 -46 0 -3 441 -5 980 -5 l980 0 0 59 c0 62 -1 63
-66 109 -11 7 -12 10 -4 7 10 -5 10 -2 -2 8 -10 8 -14 18 -10 23 4 4 -2 2 -12
-6 -18 -14 -19 -13 -13 3 4 11 3 16 -4 12 -6 -4 -19 1 -30 11 -15 14 -17 20
-7 27 9 6 7 7 -5 3 -21 -7 -71 27 -59 39 4 5 2 6 -3 3 -6 -4 -52 27 -103 68
-52 41 -90 74 -85 74 7 0 -25 20 -182 115 -33 20 -67 40 -75 45 -53 34 -178
102 -252 138 -72 35 -89 48 -94 70 -4 15 -26 99 -50 187 -23 88 -39 162 -33
163 5 2 9 8 9 13 0 6 -4 7 -10 4 -5 -3 -10 -1 -10 4 0 6 5 11 10 11 6 0 10 5
10 11 0 6 -7 9 -15 5 -8 -3 -15 -1 -15 5 0 6 9 13 20 16 11 3 20 12 20 19 0
12 42 14 235 14 141 0 235 -4 235 -9 0 -6 -24 -12 -52 -14 -42 -3 -37 -4 25
-5 46 -1 76 2 72 7 -3 5 -1 12 5 16 5 3 10 1 10 -5 0 -12 78 -9 133 5 17 5 27
3 27 -3 0 -6 -10 -13 -22 -15 -13 -3 4 -3 37 0 33 2 76 9 96 15 20 5 44 8 55
6 14 -4 10 -7 -16 -15 -32 -9 -29 -10 32 -9 36 1 64 3 62 5 -6 6 69 41 91 41
16 0 17 2 5 10 -12 8 -12 10 5 11 20 0 20 1 0 8 -17 7 -17 8 8 15 l27 6 0 381
0 380 -21 -11 c-11 -7 -18 -14 -15 -17 3 -3 -3 -20 -13 -37 -10 -17 -22 -49
-26 -72 -7 -43 -38 -104 -54 -104 -16 0 -30 53 -33 126 -3 71 -19 107 -76 174
-7 8 -21 26 -31 39 -18 25 -19 25 -226 28 l-208 3 -4 108 c-11 334 -44 509
-141 757 -78 198 -92 257 -162 685 -81 494 -180 753 -401 1045 -230 305 -492
491 -804 568 -197 49 -360 59 -536 32z m456 -50 c271 -52 493 -174 698 -384
307 -315 462 -645 541 -1151 72 -457 94 -555 162 -722 74 -183 99 -266 119
-401 18 -116 26 -360 15 -467 -7 -73 -7 -72 -10 50 -1 69 -2 128 -1 133 0 4
-14 7 -33 7 -19 0 -38 4 -41 10 -7 11 39 25 54 16 5 -4 12 -2 16 4 6 9 -40 15
-85 12 -28 -2 -105 32 -125 55 -27 30 -40 30 -20 0 15 -23 46 -43 90 -58 l20
-7 -20 -1 c-11 0 -33 6 -49 14 -26 14 -31 14 -46 0 -22 -20 -74 -21 -66 0 3 8
-2 19 -11 23 -11 7 -14 17 -10 33 5 21 4 22 -6 8 -8 -10 -14 -59 -15 -125 -2
-60 -5 -111 -8 -113 -3 -3 -4 51 -4 119 1 69 -1 132 -3 140 -3 8 -8 74 -11
145 -4 72 -13 189 -21 260 -8 72 -15 136 -15 143 0 6 -7 12 -15 12 -18 0 -18
13 1 -210 10 -109 17 -296 18 -455 1 -239 -1 -276 -18 -325 -22 -64 -40 -89
-51 -69 -5 7 -4 10 3 5 11 -6 32 50 32 86 0 9 4 19 10 23 5 3 6 15 1 28 -5 13
-5 30 -1 38 5 8 5 21 0 29 -8 12 -10 10 -10 -7 0 -13 -4 -23 -10 -23 -5 0 -10
9 -10 20 0 22 -16 27 -23 8 -3 -7 -4 5 -2 27 1 22 1 32 -2 23 -8 -30 -21 -20
-39 30 -9 26 -28 57 -43 70 -60 52 -71 64 -72 80 -1 11 -4 8 -9 -8 -7 -22 -8
-20 -9 15 -1 35 -3 38 -13 20 -11 -19 -11 -19 -20 0 -6 15 -7 11 -3 -12 2 -20
0 -33 -6 -33 -6 0 -8 -8 -5 -17 3 -10 -1 -29 -9 -43 -10 -18 -14 -20 -15 -8 0
9 4 19 9 23 13 7 4 339 -11 475 -14 120 -17 252 -5 293 6 23 4 27 -12 27 -11
0 -21 -9 -25 -22 -9 -35 -7 -179 3 -234 13 -71 25 -404 15 -404 -20 1 -58 78
-65 130 -13 101 -47 312 -52 316 -5 5 -21 -127 -32 -258 -6 -76 -20 -123 -28
-98 -3 8 -8 42 -12 75 -3 33 -32 150 -64 260 -33 110 -70 241 -82 292 -18 72
-26 90 -36 81 -10 -8 -13 -5 -13 11 0 11 -5 21 -11 21 -14 0 0 -42 19 -56 9
-6 16 -28 16 -53 1 -36 0 -40 -11 -25 -11 16 -13 12 -14 -27 l-2 -44 -7 55
c-5 30 -10 71 -13 90 -31 203 -73 990 -54 990 4 0 46 -24 94 -53 198 -120 303
-168 303 -140 0 4 -23 40 -51 80 -68 99 -134 235 -149 307 -16 79 -1 138 47
188 30 31 34 38 20 44 -19 7 -64 -26 -93 -68 -10 -15 -20 -25 -23 -23 -2 3 2
11 9 20 20 24 3 18 -50 -19 -101 -70 -130 -105 -130 -161 0 -14 -4 -25 -9 -25
-12 0 -121 118 -121 131 0 6 -7 8 -17 5 -10 -4 -25 2 -40 15 -12 13 -23 17
-23 11 0 -6 5 -14 10 -17 13 -8 13 -35 0 -35 -5 0 -7 7 -4 15 4 8 2 15 -4 15
-27 0 -15 -29 27 -68 57 -54 23 -38 -39 18 -25 22 -36 37 -25 33 11 -3 17 -3
14 1 -4 4 -16 8 -28 11 -11 2 -41 22 -65 45 -24 23 -51 47 -59 53 -25 19 -58
107 -64 170 -6 56 -18 73 -30 41 -6 -17 9 -138 22 -169 7 -17 6 -18 -6 -9 -8
7 -23 14 -34 17 -19 4 -19 5 2 6 16 1 20 6 16 21 -4 13 -34 34 -91 60 -48 23
-107 54 -133 70 -49 32 -65 37 -53 18 5 -7 2 -9 -8 -5 -12 4 -14 1 -11 -14 4
-15 2 -18 -13 -13 -16 6 -17 5 -6 -7 6 -7 12 -21 12 -31 0 -9 8 -22 18 -27 15
-9 15 -10 1 -11 -22 0 -49 71 -56 148 -4 42 -10 62 -19 62 -9 0 -14 -20 -16
-66 l-3 -66 -59 32 c-55 28 -96 34 -81 10 3 -5 0 -10 -9 -10 -8 0 -17 -6 -19
-12 -3 -8 -6 -6 -6 5 -1 9 -6 17 -11 17 -7 0 -7 -6 0 -19 12 -24 13 -68 1 -75
-4 -3 -14 20 -20 52 -12 56 -10 111 4 165 6 21 4 27 -8 27 -19 0 -37 -56 -37
-114 l0 -39 -91 7 c-51 4 -105 14 -121 22 -29 15 -48 12 -48 -8 0 -6 7 -5 17
3 15 13 16 12 11 -9 -4 -14 -2 -20 4 -16 7 5 9 -3 4 -22 -4 -16 -12 -30 -17
-32 -5 -2 -9 -10 -9 -18 0 -8 -5 -14 -12 -14 -6 0 -8 -3 -5 -6 4 -4 13 -1 22
6 13 11 14 10 9 -4 -3 -9 -12 -16 -20 -16 -8 0 -14 -4 -14 -10 0 -5 17 -3 39
6 22 8 52 14 68 11 25 -4 24 -4 -7 -6 -20 0 -40 -5 -45 -10 -6 -5 -34 -16 -64
-26 -42 -14 -58 -15 -78 -6 -13 6 -23 15 -21 19 35 67 70 152 89 212 27 89 77
146 179 202 118 66 330 130 493 148 100 12 336 4 432 -15z m-435 -439 c0 -3
-4 -8 -10 -11 -5 -3 -10 -1 -10 4 0 6 5 11 10 11 6 0 10 -2 10 -4z m231 -217
c35 -12 73 -31 84 -42 11 -11 15 -17 9 -13 -7 3 -25 -1 -40 -9 -16 -8 -35 -15
-42 -15 -8 0 -46 -16 -85 -35 -39 -19 -73 -33 -75 -30 -2 2 12 12 32 21 26 13
33 20 24 27 -9 6 -8 7 4 3 21 -6 142 37 131 48 -4 4 0 4 10 0 9 -3 17 -2 17 2
0 13 -116 45 -137 38 -15 -5 -16 -4 -3 5 12 9 11 11 -7 11 -13 0 -23 -5 -23
-12 0 -6 -3 -9 -6 -5 -10 10 6 27 25 27 9 0 46 -10 82 -21z m18 -47 c-14 -5
-39 6 -39 17 0 5 11 4 25 -2 13 -7 20 -14 14 -15z m-159 -62 c8 -5 11 -10 5
-10 -5 0 -17 5 -25 10 -8 5 -10 10 -5 10 6 0 17 -5 25 -10z m-20 -40 c0 -5 -4
-10 -10 -10 -5 0 -10 5 -10 10 0 6 5 10 10 10 6 0 10 -4 10 -10z m540 -65 c11
-13 10 -14 -4 -9 -9 3 -16 10 -16 15 0 13 6 11 20 -6z m-35 -48 c11 -9 29 -24
40 -32 15 -12 12 -11 -15 2 -19 9 -46 31 -60 47 -17 22 -18 26 -5 15 11 -9 29
-24 40 -32z m-171 -16 c3 -5 -1 -11 -9 -14 -9 -4 -12 -1 -8 9 6 16 10 17 17 5z
m-1197 -17 c-3 -3 -12 -4 -19 -1 -8 3 -5 6 6 6 11 1 17 -2 13 -5z m1220 -11
c-4 -3 -1 -13 6 -22 11 -14 10 -14 -5 -2 -16 12 -16 31 -1 31 4 0 3 -3 0 -7z
m82 -99 c14 -12 -19 -1 -35 12 -18 14 -18 14 6 3 14 -6 27 -13 29 -15z m-224
-24 c3 -6 -1 -7 -9 -4 -18 7 -21 14 -7 14 6 0 13 -4 16 -10z m271 -6 c18 -14
18 -14 -6 -3 -31 14 -36 19 -24 19 6 0 19 -7 30 -16z m131 -46 c-3 -7 -5 -2
-5 12 0 14 2 19 5 13 2 -7 2 -19 0 -25z m-353 6 c5 -14 4 -15 -9 -4 -17 14
-19 20 -6 20 5 0 12 -7 15 -16z m363 -216 c-3 -8 -6 -5 -6 6 -1 11 2 17 5 13
3 -3 4 -12 1 -19z m-1917 -540 c2 -145 0 -160 -19 -187 -12 -16 -32 -52 -45
-81 -16 -35 -27 -47 -32 -39 -11 19 -14 60 -4 54 10 -6 25 34 16 42 -3 4 -6
-2 -7 -13 0 -18 -1 -18 -9 1 l-9 20 0 -20 c-1 -22 -50 -88 -51 -68 0 6 5 15
10 18 6 3 10 13 10 22 0 13 -3 13 -15 3 -8 -7 -15 -19 -15 -26 0 -8 -4 -14
-10 -14 -5 0 -10 -6 -10 -12 0 -7 -11 -26 -24 -43 l-24 -30 -7 60 c-9 83 -12
96 -14 52 0 -20 -4 -36 -8 -36 -25 4 -41 -3 -39 -18 1 -13 -7 -19 -26 -21 -34
-4 -37 -29 -5 -35 19 -4 19 -4 -5 -6 -17 0 -32 7 -41 19 l-14 21 -6 -21 c-3
-11 -1 -18 4 -14 14 8 11 -24 -3 -33 -7 -4 -22 -8 -33 -8 -11 0 -19 -6 -18
-12 2 -7 -4 -13 -12 -13 -8 0 -15 -4 -15 -10 0 -5 5 -10 10 -10 6 0 10 -4 10
-10 0 -5 -11 -10 -25 -10 -17 0 -25 -6 -25 -17 0 -15 -1 -15 -18 0 -18 17 -32
14 -32 -7 0 -6 5 -4 10 4 8 12 10 10 10 -8 0 -13 -4 -20 -10 -17 -5 3 -10 1
-10 -4 0 -14 13 -14 26 -1 8 8 11 2 12 -17 0 -31 -38 -87 -45 -65 -7 19 -23
14 -23 -8 0 -13 7 -20 20 -20 13 0 20 -7 20 -20 0 -25 -37 -27 -43 -2 -4 12
-5 11 -6 -6 -1 -13 6 -26 17 -30 14 -6 16 -15 11 -47 -6 -38 -6 -38 -8 -7 0
17 -5 32 -10 32 -6 0 -9 -24 -8 -52 0 -29 3 -45 5 -35 4 21 32 23 32 2 0 -8
-5 -14 -12 -12 -6 1 -14 -9 -18 -23 l-6 -25 -7 25 c-4 14 -7 68 -7 120 0 102
15 167 70 313 104 270 250 510 452 739 l73 83 6 -130 c4 -72 8 -201 9 -287z
m-401 -571 c-2 -1 -12 -9 -22 -16 -15 -12 -17 -12 -11 3 3 9 13 16 22 16 8 0
13 -1 11 -3z m-31 -152 c-3 -3 -9 2 -12 12 -6 14 -5 15 5 6 7 -7 10 -15 7 -18z
m-1 -62 c-3 -10 -5 -2 -5 17 0 19 2 27 5 18 2 -10 2 -26 0 -35z m10 -65 c-3
-7 -5 -2 -5 12 0 14 2 19 5 13 2 -7 2 -19 0 -25z m-141 -26 c-3 -10 -1 -34 3
-54 13 -55 -4 -47 -20 9 -10 36 -10 48 -1 51 7 2 9 9 6 14 -4 7 -2 8 5 4 6 -4
10 -15 7 -24z m156 -64 c-4 -4 -8 10 -9 30 -1 37 -1 37 8 7 4 -16 5 -33 1 -37z
m25 -70 c-3 -8 -6 -5 -6 6 -1 11 2 17 5 13 3 -3 4 -12 1 -19z m2910 -30 c-3
-8 -6 -5 -6 6 -1 11 2 17 5 13 3 -3 4 -12 1 -19z m-2887 -23 c0 -5 -5 -3 -10
5 -5 8 -10 20 -10 25 0 6 5 3 10 -5 5 -8 10 -19 10 -25z m-110 -216 c0 -6 -4
-7 -10 -4 -5 3 -10 11 -10 16 0 6 5 7 10 4 6 -3 10 -11 10 -16z m3210 5 c0 -8
-4 -12 -10 -9 -5 3 -10 10 -10 16 0 5 5 9 10 9 6 0 10 -7 10 -16z m-23 -46
c-3 -8 -6 -5 -6 6 -1 11 2 17 5 13 3 -3 4 -12 1 -19z m-4607 -703 c0 -8 -4
-15 -9 -15 -13 0 -22 16 -14 24 11 11 23 6 23 -9z m4742 -206 c-20 -23 -19
-23 -24 -1 -4 12 1 17 18 18 20 2 21 1 6 -17z m-741 -956 c-12 -20 -14 -14 -5
12 4 9 9 14 11 11 3 -2 0 -13 -6 -23z m-30 -80 c-12 -20 -14 -14 -5 12 4 9 9
14 11 11 3 -2 0 -13 -6 -23z"/>
<path d="M3765 4690 c10 -32 35 -70 46 -70 15 0 10 13 -22 55 -25 32 -30 35
-24 15z"/>
<path d="M4072 3460 c0 -8 4 -26 8 -40 6 -20 8 -21 8 -5 0 11 -3 29 -8 40 -5
12 -8 14 -8 5z"/>
<path d="M4055 3420 c3 -5 8 -10 11 -10 2 0 4 5 4 10 0 6 -5 10 -11 10 -5 0
-7 -4 -4 -10z"/>
<path d="M4062 3315 c0 -16 2 -22 5 -12 2 9 2 23 0 30 -3 6 -5 -1 -5 -18z"/>
<path d="M4770 2318 c0 -9 -6 -19 -12 -21 -10 -4 -10 -6 0 -6 14 -1 28 26 18
36 -3 4 -6 -1 -6 -9z"/>
<path d="M1960 3280 c0 -5 5 -10 10 -10 6 0 10 5 10 10 0 6 -4 10 -10 10 -5 0
-10 -4 -10 -10z"/>
<path d="M1946 3213 c-6 -14 -5 -15 5 -6 7 7 10 15 7 18 -3 3 -9 -2 -12 -12z"/>
<path d="M1520 3040 c0 -5 5 -10 11 -10 5 0 7 5 4 10 -3 6 -8 10 -11 10 -2 0
-4 -4 -4 -10z"/>
<path d="M3094 4406 c-9 -22 0 -91 11 -89 14 4 19 103 5 103 -6 0 -13 -6 -16
-14z"/>
<path d="M2373 3778 c-73 -129 -125 -230 -121 -233 2 -3 71 -6 153 -9 171 -5
203 -13 362 -84 134 -60 200 -76 291 -67 91 9 124 20 157 55 23 24 26 32 15
45 -16 19 -38 19 -84 0 -35 -15 -36 -15 -52 12 -94 154 -147 220 -211 262 -44
29 -52 31 -141 31 -52 0 -120 6 -151 14 -31 8 -86 17 -122 21 l-67 6 -29 -53z
m192 -3 c33 -8 102 -14 153 -15 107 0 145 -15 203 -77 48 -52 158 -213 146
-213 -2 0 -41 22 -86 50 -160 95 -353 156 -526 164 -44 2 -83 5 -86 5 -4 1 5
23 20 51 25 49 27 50 71 50 25 0 72 -7 105 -15z"/>
<path d="M3408 3585 c-3 -3 1 -34 9 -68 15 -60 13 -207 -3 -309 -5 -30 -3 -38
9 -38 17 0 21 14 37 127 20 136 -15 325 -52 288z"/>
<path d="M2311 3388 c-23 -36 -20 -60 9 -87 15 -15 37 -46 50 -71 12 -25 26
-53 31 -62 5 -10 5 -28 -1 -43 -13 -34 -13 -131 0 -156 21 -38 31 -20 24 40
-6 53 8 131 22 131 36 0 273 44 316 59 108 37 117 48 69 93 -28 27 -30 27
-117 19 -168 -14 -261 3 -332 64 -47 41 -53 42 -71 13z"/>
<path d="M2310 2816 c-30 -6 -61 -15 -67 -19 -17 -11 -17 -37 0 -37 8 0 20
-11 27 -25 28 -52 117 -68 246 -44 70 13 81 18 63 31 -10 7 -8 8 6 3 35 -12
49 -11 53 7 6 32 -171 100 -252 97 -11 0 -46 -6 -76 -13z"/>
<path d="M4940 1230 c0 -5 5 -10 10 -10 6 0 10 5 10 10 0 6 -4 10 -10 10 -5 0
-10 -4 -10 -10z"/>
<path d="M1321 654 c0 -11 3 -14 6 -6 3 7 2 16 -1 19 -3 4 -6 -2 -5 -13z"/>
<path d="M1277 472 c-7 -35 -3 -38 11 -7 6 13 7 27 3 30 -5 2 -11 -8 -14 -23z"/>
<path d="M1280 385 c0 -17 4 -23 14 -19 8 3 12 13 9 25 -7 27 -23 24 -23 -6z"/>
<path d="M1277 333 c-2 -5 -7 -24 -11 -44 -5 -26 -3 -38 7 -42 9 -3 12 4 9 30
-3 21 0 38 8 43 8 5 9 10 2 14 -6 3 -13 3 -15 -1z"/>
<path d="M1260 221 c0 -12 5 -21 10 -21 6 0 10 6 10 14 0 8 -4 18 -10 21 -5 3
-10 -3 -10 -14z"/>
<path d="M1291 209 c-1 -25 91 -60 104 -39 4 7 13 7 25 0 16 -8 18 -8 14 4 -3
9 -22 18 -41 22 -20 4 -30 10 -24 14 7 4 -4 7 -24 7 -22 0 -31 -3 -23 -9 10
-6 9 -8 -4 -8 -9 0 -19 6 -21 13 -4 8 -6 7 -6 -4z m79 -19 c11 -7 6 -10 -20
-10 -26 0 -31 3 -20 10 8 5 17 10 20 10 3 0 12 -5 20 -10z"/>
<path d="M1412 213 c9 -2 20 -13 23 -24 4 -10 11 -19 16 -19 13 0 11 18 -3 23
-10 4 -10 6 0 6 28 2 10 18 -20 18 -18 0 -25 -2 -16 -4z"/>
<path d="M1434 148 c-7 -10 15 -20 28 -12 6 4 8 3 5 -3 -8 -13 75 -35 99 -26
11 4 15 3 11 -4 -4 -6 0 -14 9 -17 12 -5 15 -2 10 9 -3 9 -2 13 3 10 5 -3 13
0 16 6 4 6 18 8 31 5 13 -4 24 -2 24 3 0 13 -54 21 -62 8 -4 -7 -16 -7 -40 1
l-33 11 35 -4 c33 -5 33 -4 10 6 -28 13 -139 18 -146 7z m106 -26 c11 -12 9
-13 -11 -7 -32 10 -43 21 -20 21 10 0 24 -7 31 -14z"/>
<path d="M1671 101 c-7 -5 -22 -6 -34 -3 -14 3 -18 1 -13 -6 4 -7 16 -12 26
-12 10 0 20 -4 22 -9 2 -4 13 -11 25 -15 19 -6 21 -4 14 20 -8 31 -19 38 -40
25z"/>
<path d="M1883 93 c9 -2 23 -2 30 0 6 3 -1 5 -18 5 -16 0 -22 -2 -12 -5z"/>
<path d="M1743 64 c-11 -24 -10 -26 7 -21 12 3 18 1 14 -5 -4 -7 5 -8 27 -3
25 4 30 3 19 -4 -13 -10 -13 -11 0 -11 8 0 21 9 27 20 12 18 10 19 -20 15 -34
-4 -51 2 -58 22 -2 7 -9 1 -16 -13z"/>
<path d="M1866 71 c-4 -7 1 -11 13 -11 11 0 23 -5 26 -11 4 -6 1 -10 -6 -8
-36 4 -59 -2 -59 -17 0 -12 9 -14 43 -12 38 3 42 5 39 27 -3 22 -1 23 37 19
23 -2 41 0 41 4 0 5 -19 8 -42 8 -24 0 -53 3 -64 6 -12 3 -25 1 -28 -5z m42
-48 c-10 -2 -26 -2 -35 0 -10 3 -2 5 17 5 19 0 27 -2 18 -5z"/>
</g>
</svg>
